<svg xmlns="http://www.w3.org/2000/svg" viewBox="141.4 138.9 640.0 678.6" role="img" aria-label="The Salt Road"><rect x="141.4" y="138.9" width="640.0" height="678.6" fill="#e7e3d6"/><rect x="148.4" y="145.9" width="626.0" height="664.6" fill="none" stroke="#d3c7ac" stroke-width="1.6"/><rect x="153.4" y="150.9" width="616.0" height="654.6" fill="none" stroke="#e5dcc8" stroke-width="0.8"/><defs><clipPath id="land-9yfjlt"><path d="M472.7,346.9L480.6,345.6L489.3,347.4L490.5,347.5L500.9,357.0L501.6,357.8L504.8,368.8L502.1,380.0L501.4,380.9L491.3,391.7L491.3,391.8L480.9,399.6L476.1,403.2L480.4,411.9L481.9,415.0L487.7,427.4L490.9,429.4L501.6,432.8L512.1,435.8L519.1,438.4L522.6,439.6L532.9,445.2L539.3,450.0L542.8,453.5L550.5,460.9L554.7,466.0L565.4,463.3L569.3,460.8L575.9,456.8L586.5,451.7L591.2,449.9L597.0,447.6L607.4,444.2L617.9,441.7L628.3,440.0L638.8,438.5L649.5,437.2L660.4,441.6L670.8,448.1L671.1,448.2L681.4,456.3L685.3,459.8L692.2,466.9L695.6,471.2L702.6,482.2L703.0,482.9L708.1,494.4L710.4,506.0L710.8,517.4L710.4,528.8L709.2,540.2L708.0,551.6L706.6,563.1L703.7,574.2L700.2,582.2L699.0,584.9L692.4,596.0L690.1,599.0L681.6,608.2L680.6,609.1L670.6,616.2L661.0,621.0L660.6,621.0L655.0,631.9L649.7,642.7L649.3,643.4L639.0,654.7L638.9,654.8L628.2,660.3L617.7,662.8L607.3,662.9L596.7,660.7L585.8,655.6L584.9,654.9L574.8,645.2L573.5,643.5L567.5,632.1L564.4,625.3L557.2,621.7L553.6,619.7L543.1,612.5L539.8,609.7L533.2,602.7L528.4,597.3L522.9,591.1L512.2,593.7L507.3,596.9L501.6,600.8L491.5,608.4L491.1,608.6L480.2,616.1L476.0,619.4L469.8,624.6L461.6,631.0L459.4,632.8L449.0,639.3L441.2,642.3L438.4,643.3L427.5,648.5L424.6,654.1L417.5,665.7L417.4,665.7L407.3,676.8L406.7,677.4L396.2,686.8L394.6,688.2L386.0,694.8L376.5,700.1L375.6,700.5L365.0,704.2L354.5,706.8L344.0,707.6L333.7,706.7L323.3,704.8L312.8,702.8L302.3,699.9L300.6,699.3L291.7,695.7L281.0,689.5L280.0,688.6L271.4,678.8L269.8,676.4L261.7,665.2L261.0,664.1L255.5,654.2L251.6,642.9L250.1,634.4L249.7,631.6L249.0,620.2L248.1,608.8L246.7,597.6L238.6,589.9L232.8,585.9L228.2,580.7L217.5,576.9L214.4,574.9L206.5,565.6L203.7,563.1L204.1,551.2L205.7,546.4L208.6,539.2L216.0,528.1L216.6,527.4L225.4,516.2L225.8,515.5L229.9,505.6L232.2,494.3L234.0,482.9L236.5,471.7L238.2,460.3L238.8,455.7L239.6,448.9L241.2,437.6L243.3,426.2L246.9,414.9L250.1,408.8L253.0,403.9L261.2,393.3L261.2,393.2L271.6,384.6L275.0,382.5L281.6,378.6L291.7,373.6L302.0,369.7L303.5,369.2L312.3,366.4L322.8,363.2L333.4,360.9L344.1,359.5L354.6,357.9L356.3,357.7L365.1,356.2L375.6,355.5L386.2,356.2L390.8,356.9L396.7,357.6L407.2,359.1L417.7,361.4L428.3,364.5L438.3,368.0L439.3,368.5L448.3,375.3L451.2,368.4L457.5,356.8L459.3,355.5L470.5,347.3Z"/><path d="M195.9,689.3L196.8,688.8L207.2,686.5L217.6,687.3L223.0,689.1L228.0,691.0L238.3,699.1L239.7,700.5L247.1,711.6L249.9,722.2L250.0,723.1L249.9,724.1L248.3,734.6L241.6,745.7L238.5,748.8L228.0,756.0L226.5,756.5L217.7,759.1L207.5,759.0L197.6,755.6L197.7,755.6L187.7,748.9L183.4,744.9L177.2,734.4L177.0,734.1L175.2,723.3L176.2,712.3L177.1,710.1L181.6,701.1L186.7,695.5Z"/></clipPath></defs><path d="M472.7,346.9L480.6,345.6L489.3,347.4L490.5,347.5L500.9,357.0L501.6,357.8L504.8,368.8L502.1,380.0L501.4,380.9L491.3,391.7L491.3,391.8L480.9,399.6L476.1,403.2L480.4,411.9L481.9,415.0L487.7,427.4L490.9,429.4L501.6,432.8L512.1,435.8L519.1,438.4L522.6,439.6L532.9,445.2L539.3,450.0L542.8,453.5L550.5,460.9L554.7,466.0L565.4,463.3L569.3,460.8L575.9,456.8L586.5,451.7L591.2,449.9L597.0,447.6L607.4,444.2L617.9,441.7L628.3,440.0L638.8,438.5L649.5,437.2L660.4,441.6L670.8,448.1L671.1,448.2L681.4,456.3L685.3,459.8L692.2,466.9L695.6,471.2L702.6,482.2L703.0,482.9L708.1,494.4L710.4,506.0L710.8,517.4L710.4,528.8L709.2,540.2L708.0,551.6L706.6,563.1L703.7,574.2L700.2,582.2L699.0,584.9L692.4,596.0L690.1,599.0L681.6,608.2L680.6,609.1L670.6,616.2L661.0,621.0L660.6,621.0L655.0,631.9L649.7,642.7L649.3,643.4L639.0,654.7L638.9,654.8L628.2,660.3L617.7,662.8L607.3,662.9L596.7,660.7L585.8,655.6L584.9,654.9L574.8,645.2L573.5,643.5L567.5,632.1L564.4,625.3L557.2,621.7L553.6,619.7L543.1,612.5L539.8,609.7L533.2,602.7L528.4,597.3L522.9,591.1L512.2,593.7L507.3,596.9L501.6,600.8L491.5,608.4L491.1,608.6L480.2,616.1L476.0,619.4L469.8,624.6L461.6,631.0L459.4,632.8L449.0,639.3L441.2,642.3L438.4,643.3L427.5,648.5L424.6,654.1L417.5,665.7L417.4,665.7L407.3,676.8L406.7,677.4L396.2,686.8L394.6,688.2L386.0,694.8L376.5,700.1L375.6,700.5L365.0,704.2L354.5,706.8L344.0,707.6L333.7,706.7L323.3,704.8L312.8,702.8L302.3,699.9L300.6,699.3L291.7,695.7L281.0,689.5L280.0,688.6L271.4,678.8L269.8,676.4L261.7,665.2L261.0,664.1L255.5,654.2L251.6,642.9L250.1,634.4L249.7,631.6L249.0,620.2L248.1,608.8L246.7,597.6L238.6,589.9L232.8,585.9L228.2,580.7L217.5,576.9L214.4,574.9L206.5,565.6L203.7,563.1L204.1,551.2L205.7,546.4L208.6,539.2L216.0,528.1L216.6,527.4L225.4,516.2L225.8,515.5L229.9,505.6L232.2,494.3L234.0,482.9L236.5,471.7L238.2,460.3L238.8,455.7L239.6,448.9L241.2,437.6L243.3,426.2L246.9,414.9L250.1,408.8L253.0,403.9L261.2,393.3L261.2,393.2L271.6,384.6L275.0,382.5L281.6,378.6L291.7,373.6L302.0,369.7L303.5,369.2L312.3,366.4L322.8,363.2L333.4,360.9L344.1,359.5L354.6,357.9L356.3,357.7L365.1,356.2L375.6,355.5L386.2,356.2L390.8,356.9L396.7,357.6L407.2,359.1L417.7,361.4L428.3,364.5L438.3,368.0L439.3,368.5L448.3,375.3L451.2,368.4L457.5,356.8L459.3,355.5L470.5,347.3Z" fill="#f7f2e6"/><path d="M195.9,689.3L196.8,688.8L207.2,686.5L217.6,687.3L223.0,689.1L228.0,691.0L238.3,699.1L239.7,700.5L247.1,711.6L249.9,722.2L250.0,723.1L249.9,724.1L248.3,734.6L241.6,745.7L238.5,748.8L228.0,756.0L226.5,756.5L217.7,759.1L207.5,759.0L197.6,755.6L197.7,755.6L187.7,748.9L183.4,744.9L177.2,734.4L177.0,734.1L175.2,723.3L176.2,712.3L177.1,710.1L181.6,701.1L186.7,695.5Z" fill="#f7f2e6"/><path d="M412.3,480.4L405.3,491.2L398.9,502.4L392.3,513.5L385.4,526.0L394.0,535.2L402.2,544.8L409.6,555.1L418.3,564.3L427.6,572.9L436.6,581.7L445.5,590.8L453.9,600.1L461.7,610.0L462.8,620.3L464.1,630.6L466.0,639.7L456.3,648.2L446.9,657.2L437.8,666.3L428.5,675.4L419.9,683.5L408.2,684.5L396.6,685.8L385.0,688.2L373.4,689.3L361.7,689.2L349.9,689.2L338.2,689.2L326.5,689.3L314.8,690.3L303.2,691.5L291.6,693.1L279.5,695.5L270.8,687.3L262.2,678.8L252.2,672.1L242.1,665.5L232.6,658.1L223.4,650.5L214.4,642.6L204.5,634.6L204.2,623.5L204.1,612.6L215.1,607.1L225.2,600.0L234.6,591.9L244.7,585.0L255.4,579.0L265.7,572.2L276.3,566.0L287.1,560.0L297.0,552.7L306.6,545.1L316.7,538.0L326.5,530.5L336.5,523.4L346.6,517.0L341.3,505.7L336.3,494.3L330.9,483.1L325.5,471.9L319.9,460.8L314.2,449.7L308.0,438.9L301.6,428.2L296.3,416.9L290.5,404.7L278.0,403.0L265.5,402.9L253.0,404.3L240.5,405.7L228.0,407.5L215.5,408.2L203.0,408.3L190.5,407.9L178.0,406.4L180.4,394.3L182.8,382.2L186.7,370.5L190.4,358.7L191.7,346.4L192.8,334.0L196.1,322.1L200.4,310.4L204.1,298.7L208.2,287.0L211.8,275.2L213.9,263.0L216.6,251.0L221.1,239.4L225.1,227.7L224.7,217.8L237.5,216.8L250.3,215.7L263.1,215.1L275.9,214.9L288.8,215.2L291.5,226.8L294.2,238.4L296.8,250.0L299.2,261.7L302.0,273.2L304.8,284.8L308.0,296.3L310.7,307.9L312.5,319.7L314.4,331.5L317.9,342.9L322.5,354.1L324.8,364.5L336.5,364.5L348.1,364.5L359.7,363.0L371.2,361.0L382.7,360.2L394.4,360.2L405.8,359.6L411.9,349.5L418.1,339.5L424.7,329.7L432.0,320.4L439.4,311.1L446.2,301.5L451.9,291.1L457.8,280.6L463.0,269.5L467.5,258.0L471.6,246.4L478.4,234.9L484.4,243.6L490.4,252.4L496.2,261.4L501.7,270.6L509.5,280.1L517.5,289.4L525.6,298.7L533.8,307.8L542.5,316.5L550.6,325.7L558.6,335.0L567.0,343.9L575.3,353.0L583.5,362.1L592.3,370.7L600.7,379.7L609.0,388.7L617.5,397.6L625.3,408.4L615.5,418.0L605.5,422.0L595.9,425.4L582.6,426.0L569.4,427.1L556.2,428.0L541.8,431.4L533.6,440.9L525.4,449.1L514.1,452.0L502.8,455.0L491.4,457.7L480.1,460.5L469.1,464.6L458.2,468.9L446.8,471.5L435.4,474.0L424.2,477.2Z" fill="#b5893c" fill-opacity="0.13" clip-path="url(#land-9yfjlt)"/><path d="M596.9,428.7L605.8,422.5L614.8,417.0L624.2,406.8L635.6,402.3L646.9,397.3L659.2,392.4L670.7,399.3L682.1,406.2L693.3,413.7L703.5,420.4L705.4,432.2L707.9,444.0L712.0,455.3L716.4,466.6L719.7,478.1L722.6,489.7L725.1,501.4L727.2,513.2L729.2,525.1L731.2,536.9L733.6,548.6L737.0,559.2L727.2,567.3L716.7,575.2L709.2,585.5L703.0,596.6L698.6,608.5L694.7,620.6L689.8,632.3L689.3,643.1L689.2,654.0L689.2,664.9L688.7,675.7L686.6,687.5L674.9,688.0L663.4,688.8L651.9,690.2L640.4,691.9L628.9,693.0L617.2,693.3L605.7,694.3L594.2,696.0L582.8,698.2L571.5,701.2L559.2,703.7L549.5,696.1L540.0,688.2L530.3,680.5L521.6,671.7L513.2,662.4L503.5,653.5L491.5,648.9L479.2,644.7L468.3,640.4L466.4,630.3L464.2,620.1L461.9,610.1L464.6,606.8L469.2,595.8L473.5,584.6L477.0,573.1L481.0,561.9L485.5,550.8L489.7,539.6L494.0,528.4L498.5,517.3L503.0,506.2L507.8,495.3L512.4,484.2L517.6,473.5L523.3,462.8L527.3,452.4L535.7,443.0L543.6,435.1L557.0,434.9L570.1,433.0L583.2,431.2Z" fill="#5a7a5e" fill-opacity="0.13" clip-path="url(#land-9yfjlt)"/><path d="M412.3,480.4L405.3,491.2L398.9,502.4L392.3,513.5L385.4,526.0L394.0,535.2L402.2,544.8L409.6,555.1L418.3,564.3L427.6,572.9L436.6,581.7L445.5,590.8L453.9,600.1L461.7,610.0L462.8,620.3L464.1,630.6L466.0,639.7L456.3,648.2L446.9,657.2L437.8,666.3L428.5,675.4L419.9,683.5L408.2,684.5L396.6,685.8L385.0,688.2L373.4,689.3L361.7,689.2L349.9,689.2L338.2,689.2L326.5,689.3L314.8,690.3L303.2,691.5L291.6,693.1L279.5,695.5L270.8,687.3L262.2,678.8L252.2,672.1L242.1,665.5L232.6,658.1L223.4,650.5L214.4,642.6L204.5,634.6L204.2,623.5L204.1,612.6L215.1,607.1L225.2,600.0L234.6,591.9L244.7,585.0L255.4,579.0L265.7,572.2L276.3,566.0L287.1,560.0L297.0,552.7L306.6,545.1L316.7,538.0L326.5,530.5L336.5,523.4L346.6,517.0L341.3,505.7L336.3,494.3L330.9,483.1L325.5,471.9L319.9,460.8L314.2,449.7L308.0,438.9L301.6,428.2L296.3,416.9L290.5,404.7L278.0,403.0L265.5,402.9L253.0,404.3L240.5,405.7L228.0,407.5L215.5,408.2L203.0,408.3L190.5,407.9L178.0,406.4L180.4,394.3L182.8,382.2L186.7,370.5L190.4,358.7L191.7,346.4L192.8,334.0L196.1,322.1L200.4,310.4L204.1,298.7L208.2,287.0L211.8,275.2L213.9,263.0L216.6,251.0L221.1,239.4L225.1,227.7L224.7,217.8L237.5,216.8L250.3,215.7L263.1,215.1L275.9,214.9L288.8,215.2L291.5,226.8L294.2,238.4L296.8,250.0L299.2,261.7L302.0,273.2L304.8,284.8L308.0,296.3L310.7,307.9L312.5,319.7L314.4,331.5L317.9,342.9L322.5,354.1L324.8,364.5L336.5,364.5L348.1,364.5L359.7,363.0L371.2,361.0L382.7,360.2L394.4,360.2L405.8,359.6L411.9,349.5L418.1,339.5L424.7,329.7L432.0,320.4L439.4,311.1L446.2,301.5L451.9,291.1L457.8,280.6L463.0,269.5L467.5,258.0L471.6,246.4L478.4,234.9L484.4,243.6L490.4,252.4L496.2,261.4L501.7,270.6L509.5,280.1L517.5,289.4L525.6,298.7L533.8,307.8L542.5,316.5L550.6,325.7L558.6,335.0L567.0,343.9L575.3,353.0L583.5,362.1L592.3,370.7L600.7,379.7L609.0,388.7L617.5,397.6L625.3,408.4L615.5,418.0L605.5,422.0L595.9,425.4L582.6,426.0L569.4,427.1L556.2,428.0L541.8,431.4L533.6,440.9L525.4,449.1L514.1,452.0L502.8,455.0L491.4,457.7L480.1,460.5L469.1,464.6L458.2,468.9L446.8,471.5L435.4,474.0L424.2,477.2Z" fill="none" stroke="#d3c7ac" stroke-width="1.5" clip-path="url(#land-9yfjlt)"/><path d="M596.9,428.7L605.8,422.5L614.8,417.0L624.2,406.8L635.6,402.3L646.9,397.3L659.2,392.4L670.7,399.3L682.1,406.2L693.3,413.7L703.5,420.4L705.4,432.2L707.9,444.0L712.0,455.3L716.4,466.6L719.7,478.1L722.6,489.7L725.1,501.4L727.2,513.2L729.2,525.1L731.2,536.9L733.6,548.6L737.0,559.2L727.2,567.3L716.7,575.2L709.2,585.5L703.0,596.6L698.6,608.5L694.7,620.6L689.8,632.3L689.3,643.1L689.2,654.0L689.2,664.9L688.7,675.7L686.6,687.5L674.9,688.0L663.4,688.8L651.9,690.2L640.4,691.9L628.9,693.0L617.2,693.3L605.7,694.3L594.2,696.0L582.8,698.2L571.5,701.2L559.2,703.7L549.5,696.1L540.0,688.2L530.3,680.5L521.6,671.7L513.2,662.4L503.5,653.5L491.5,648.9L479.2,644.7L468.3,640.4L466.4,630.3L464.2,620.1L461.9,610.1L464.6,606.8L469.2,595.8L473.5,584.6L477.0,573.1L481.0,561.9L485.5,550.8L489.7,539.6L494.0,528.4L498.5,517.3L503.0,506.2L507.8,495.3L512.4,484.2L517.6,473.5L523.3,462.8L527.3,452.4L535.7,443.0L543.6,435.1L557.0,434.9L570.1,433.0L583.2,431.2Z" fill="none" stroke="#d3c7ac" stroke-width="1.5" clip-path="url(#land-9yfjlt)"/><path d="M472.7,346.9L480.6,345.6L489.3,347.4L490.5,347.5L500.9,357.0L501.6,357.8L504.8,368.8L502.1,380.0L501.4,380.9L491.3,391.7L491.3,391.8L480.9,399.6L476.1,403.2L480.4,411.9L481.9,415.0L487.7,427.4L490.9,429.4L501.6,432.8L512.1,435.8L519.1,438.4L522.6,439.6L532.9,445.2L539.3,450.0L542.8,453.5L550.5,460.9L554.7,466.0L565.4,463.3L569.3,460.8L575.9,456.8L586.5,451.7L591.2,449.9L597.0,447.6L607.4,444.2L617.9,441.7L628.3,440.0L638.8,438.5L649.5,437.2L660.4,441.6L670.8,448.1L671.1,448.2L681.4,456.3L685.3,459.8L692.2,466.9L695.6,471.2L702.6,482.2L703.0,482.9L708.1,494.4L710.4,506.0L710.8,517.4L710.4,528.8L709.2,540.2L708.0,551.6L706.6,563.1L703.7,574.2L700.2,582.2L699.0,584.9L692.4,596.0L690.1,599.0L681.6,608.2L680.6,609.1L670.6,616.2L661.0,621.0L660.6,621.0L655.0,631.9L649.7,642.7L649.3,643.4L639.0,654.7L638.9,654.8L628.2,660.3L617.7,662.8L607.3,662.9L596.7,660.7L585.8,655.6L584.9,654.9L574.8,645.2L573.5,643.5L567.5,632.1L564.4,625.3L557.2,621.7L553.6,619.7L543.1,612.5L539.8,609.7L533.2,602.7L528.4,597.3L522.9,591.1L512.2,593.7L507.3,596.9L501.6,600.8L491.5,608.4L491.1,608.6L480.2,616.1L476.0,619.4L469.8,624.6L461.6,631.0L459.4,632.8L449.0,639.3L441.2,642.3L438.4,643.3L427.5,648.5L424.6,654.1L417.5,665.7L417.4,665.7L407.3,676.8L406.7,677.4L396.2,686.8L394.6,688.2L386.0,694.8L376.5,700.1L375.6,700.5L365.0,704.2L354.5,706.8L344.0,707.6L333.7,706.7L323.3,704.8L312.8,702.8L302.3,699.9L300.6,699.3L291.7,695.7L281.0,689.5L280.0,688.6L271.4,678.8L269.8,676.4L261.7,665.2L261.0,664.1L255.5,654.2L251.6,642.9L250.1,634.4L249.7,631.6L249.0,620.2L248.1,608.8L246.7,597.6L238.6,589.9L232.8,585.9L228.2,580.7L217.5,576.9L214.4,574.9L206.5,565.6L203.7,563.1L204.1,551.2L205.7,546.4L208.6,539.2L216.0,528.1L216.6,527.4L225.4,516.2L225.8,515.5L229.9,505.6L232.2,494.3L234.0,482.9L236.5,471.7L238.2,460.3L238.8,455.7L239.6,448.9L241.2,437.6L243.3,426.2L246.9,414.9L250.1,408.8L253.0,403.9L261.2,393.3L261.2,393.2L271.6,384.6L275.0,382.5L281.6,378.6L291.7,373.6L302.0,369.7L303.5,369.2L312.3,366.4L322.8,363.2L333.4,360.9L344.1,359.5L354.6,357.9L356.3,357.7L365.1,356.2L375.6,355.5L386.2,356.2L390.8,356.9L396.7,357.6L407.2,359.1L417.7,361.4L428.3,364.5L438.3,368.0L439.3,368.5L448.3,375.3L451.2,368.4L457.5,356.8L459.3,355.5L470.5,347.3Z" fill="none" stroke="#2b2620" stroke-width="1.5"/><path d="M473.4,347.6L481.5,346.5L490.3,348.4L491.6,348.6L501.9,358.1L502.6,358.9L505.8,369.7L502.1,380.0L501.3,380.9L490.3,390.7L490.3,390.8L480.0,398.8L475.3,402.4L479.2,410.8L480.8,413.9L486.7,426.4L490.0,428.5L500.9,432.0L511.7,435.4L519.0,438.3L522.6,439.7L533.3,445.5L539.7,450.4L543.3,454.0L551.0,461.4L555.4,466.7L566.0,463.9L569.8,461.3L576.4,457.3L586.6,451.8L590.9,449.6L596.2,446.9L606.2,443.0L616.9,440.8L628.2,439.8L639.0,438.7L649.3,436.9L659.6,440.8L670.0,447.3L670.3,447.5L681.3,456.2L685.4,459.9L692.5,467.2L695.9,471.5L702.5,482.1L702.9,482.7L707.5,493.8L709.7,505.3L710.0,516.7L709.6,528.0L708.3,539.3L707.2,550.8L706.1,562.6L703.3,573.9L699.9,581.8L698.7,584.6L692.1,595.7L689.9,598.8L681.3,607.8L680.2,608.8L669.8,615.5L660.2,620.2L659.8,620.2L654.7,631.6L649.8,642.8L649.5,643.5L639.1,654.8L639.0,654.9L627.8,659.9L616.7,661.8L606.0,661.6L595.5,659.6L585.3,655.1L584.5,654.6L575.0,645.4L573.7,643.7L567.4,632.0L564.2,625.1L557.1,621.5L553.5,619.6L542.6,612.0L539.2,609.1L532.6,602.1L528.1,597.0L522.9,591.1L512.8,594.3L508.2,597.7L502.7,601.9L493.0,609.8L492.5,610.1L481.4,617.3L476.8,620.3L470.3,625.1L461.9,631.4L459.8,633.2L449.7,640.0L442.1,643.2L439.4,644.3L428.8,649.8L426.1,655.6L419.0,667.2L419.0,667.3L408.4,677.9L407.8,678.4L396.5,687.1L394.7,688.4L385.9,694.7L376.7,700.2L375.8,700.7L366.0,705.2L356.0,708.2L345.5,709.1L335.2,708.2L324.8,706.2L314.1,704.1L303.4,701.0L301.7,700.3L292.5,696.6L281.7,690.2L280.7,689.3L272.4,679.9L270.9,677.5L262.5,666.0L261.7,664.8L255.9,654.6L251.8,643.1L250.2,634.5L249.7,631.5L248.6,619.7L247.0,607.7L245.2,596.2L236.9,588.2L231.2,584.3L226.7,579.2L216.5,575.8L213.4,573.9L205.5,564.6L202.7,562.1L202.9,549.9L204.4,545.1L207.4,537.9L214.9,527.1L215.6,526.4L224.9,515.7L225.3,515.0L229.6,505.3L231.9,494.0L233.3,482.3L235.7,470.9L237.4,459.5L237.9,454.9L238.6,448.0L240.0,436.4L242.2,425.1L246.0,414.0L249.4,408.1L252.5,403.5L261.3,393.3L261.3,393.3L272.3,385.3L275.9,383.4L282.9,379.9L293.5,375.4L303.7,371.4L305.1,370.8L313.2,367.2L323.0,363.5L334.0,361.4L345.3,360.7L355.8,359.2L357.5,358.9L365.8,357.0L375.7,355.6L385.8,355.8L390.3,356.3L395.9,356.8L406.2,358.1L416.3,360.1L426.8,363.0L437.0,366.8L438.1,367.2L447.7,374.7L450.5,367.7L457.1,356.4L459.0,355.3L471.1,347.9Z" fill="none" stroke="#d3c7ac" stroke-width="0.6" opacity="0.5"/><path d="M474.1,348.4L482.6,347.6L491.5,349.6L492.8,349.8L503.0,359.2L503.8,360.1L506.8,370.8L502.1,380.0L501.2,380.8L489.2,389.6L489.2,389.7L479.1,397.8L474.3,401.4L477.9,409.4L479.4,412.6L485.6,425.3L488.9,427.4L500.0,431.1L511.2,434.9L518.9,438.1L522.7,439.7L533.7,445.9L540.2,450.9L543.8,454.5L551.6,462.0L556.1,467.4L566.6,464.5L570.5,462.0L576.9,457.8L586.6,451.8L590.6,449.3L595.4,446.0L604.7,441.5L615.8,439.7L628.0,439.6L639.2,438.9L649.0,436.7L658.7,439.9L669.2,446.4L669.4,446.6L681.2,456.1L685.6,460.1L692.9,467.6L696.3,471.9L702.4,482.0L702.8,482.6L706.9,493.2L708.9,504.5L709.2,515.8L708.6,527.1L707.2,538.2L706.3,549.9L705.5,562.0L702.9,573.5L699.5,581.5L698.3,584.2L691.8,595.4L689.6,598.5L680.9,607.5L679.8,608.4L668.9,614.6L659.3,619.3L658.9,619.3L654.4,631.3L649.9,642.9L649.6,643.6L639.2,654.9L639.1,655.0L627.3,659.4L615.5,660.6L604.4,660.1L594.2,658.2L584.8,654.6L584.1,654.2L575.2,645.7L573.9,643.9L567.2,631.8L563.9,624.8L556.9,621.3L553.3,619.4L542.0,611.4L538.4,608.3L531.9,601.3L527.7,596.6L522.9,591.1L513.4,595.0L509.2,598.7L504.1,603.3L494.7,611.5L494.2,611.8L482.7,618.6L477.9,621.3L471.0,625.7L462.3,631.8L460.2,633.6L450.4,640.7L443.2,644.3L440.6,645.5L430.4,651.4L427.9,657.3L420.8,669.0L420.8,669.0L409.6,679.2L409.0,679.7L396.8,687.4L394.9,688.6L385.8,694.6L376.9,700.4L376.0,701.0L367.0,706.3L357.6,709.9L347.2,710.8L336.9,709.9L326.4,707.9L315.6,705.6L304.6,702.2L302.8,701.5L293.5,697.5L282.5,691.0L281.5,690.1L273.6,681.0L272.1,678.7L263.5,666.9L262.6,665.7L256.3,655.0L252.0,643.3L250.3,634.5L249.7,631.5L248.0,619.1L245.7,606.4L243.6,594.5L234.9,586.2L229.3,582.4L224.9,577.4L215.2,574.6L212.3,572.8L204.3,563.4L201.6,561.0L201.4,548.5L202.9,543.7L205.9,536.5L213.7,525.9L214.4,525.2L224.3,515.0L224.7,514.4L229.3,504.9L231.5,493.6L232.6,481.5L234.8,470.0L236.4,458.6L236.9,453.9L237.4,446.8L238.7,435.1L241.0,423.8L245.0,412.9L248.7,407.3L252.0,403.0L261.4,393.4L261.4,393.4L273.1,386.1L276.9,384.4L284.3,381.3L295.6,377.5L305.7,373.3L306.9,372.6L314.2,368.2L323.3,363.8L334.7,362.1L346.6,362.0L357.3,360.7L358.9,360.3L366.7,357.9L375.8,355.6L385.3,355.3L389.6,355.6L395.1,356.0L405.0,356.9L414.7,358.5L425.0,361.2L435.6,365.3L436.7,365.9L447.0,374.0L449.7,366.9L456.7,356.0L458.7,355.0L471.7,348.5Z" fill="none" stroke="#d3c7ac" stroke-width="0.6" opacity="0.5"/><path d="M195.9,689.3L196.8,688.8L207.2,686.5L217.6,687.3L223.0,689.1L228.0,691.0L238.3,699.1L239.7,700.5L247.1,711.6L249.9,722.2L250.0,723.1L249.9,724.1L248.3,734.6L241.6,745.7L238.5,748.8L228.0,756.0L226.5,756.5L217.7,759.1L207.5,759.0L197.6,755.6L197.7,755.6L187.7,748.9L183.4,744.9L177.2,734.4L177.0,734.1L175.2,723.3L176.2,712.3L177.1,710.1L181.6,701.1L186.7,695.5Z" fill="none" stroke="#2b2620" stroke-width="1.5"/><path d="M194.3,687.7L195.2,687.2L205.7,685.0L216.6,686.4L222.4,688.5L227.7,690.7L238.0,698.8L239.3,700.2L246.4,710.9L249.1,721.4L249.3,722.3L249.1,723.4L247.9,734.2L241.8,745.9L238.8,749.1L228.6,756.6L227.2,757.2L218.7,760.2L208.6,760.2L198.2,756.2L198.3,756.3L187.8,748.9L183.3,744.9L176.8,734.0L176.6,733.7L173.8,721.9L174.0,710.1L174.8,707.7L179.3,698.8L184.8,693.6Z" fill="none" stroke="#d3c7ac" stroke-width="0.6" opacity="0.5"/><path d="M192.6,685.9L193.4,685.5L204.0,683.4L215.6,685.3L221.7,687.9L227.3,690.4L237.7,698.4L238.9,699.8L245.6,710.1L248.2,720.5L248.4,721.4L248.3,722.5L247.4,733.7L242.0,746.1L239.2,749.5L229.3,757.3L228.0,757.9L219.9,761.4L210.0,761.5L198.9,756.9L199.1,757.0L187.9,749.0L183.3,744.9L176.4,733.6L176.2,733.2L172.3,720.4L171.4,707.5L172.1,705.0L176.6,696.2L182.6,691.4Z" fill="none" stroke="#d3c7ac" stroke-width="0.6" opacity="0.5"/><path d="M339.0,610.9 Q464.8,617.7 610.7,619.9" fill="none" stroke="#6b6154" stroke-width="1.1" stroke-dasharray="2 3"/><path d="M451.8,474.7 L459.3,463.5 L466.8,474.7" fill="none" stroke="#2b2620" stroke-width="1.2" stroke-linejoin="round"/><path d="M459.3,463.5 L461.9,468.3" fill="none" stroke="#d3c7ac" stroke-width="0.8"/><path d="M461.3,483.4 L472.7,466.4 L484.1,483.4" fill="none" stroke="#2b2620" stroke-width="1.2" stroke-linejoin="round"/><path d="M472.7,466.4 L476.7,473.7" fill="none" stroke="#d3c7ac" stroke-width="0.8"/><path d="M486.8,483.2 L494.9,471.0 L503.0,483.2" fill="none" stroke="#2b2620" stroke-width="1.2" stroke-linejoin="round"/><path d="M494.9,471.0 L497.7,476.3" fill="none" stroke="#d3c7ac" stroke-width="0.8"/><path d="M497.4,490.0 L505.3,478.2 L513.2,490.0" fill="none" stroke="#2b2620" stroke-width="1.2" stroke-linejoin="round"/><path d="M505.3,478.2 L508.1,483.3" fill="none" stroke="#d3c7ac" stroke-width="0.8"/><path d="M514.8,496.1 L522.6,484.4 L530.4,496.1" fill="none" stroke="#2b2620" stroke-width="1.2" stroke-linejoin="round"/><path d="M522.6,484.4 L525.3,489.5" fill="none" stroke="#d3c7ac" stroke-width="0.8"/><g data-entity="cindral"><circle cx="339.0" cy="610.9" r="6" fill="#2b2620"/><circle cx="339.0" cy="610.9" r="9.5" fill="none" stroke="#2b2620" stroke-width="1.1"/></g><g data-entity="kessa"><circle cx="610.7" cy="619.9" r="3" fill="#2b2620"/></g><g data-entity="pale-kingdoms"><path d="M209.1,718.8 L212.1,725.2 L206.1,725.2Z" fill="none" stroke="#2b2620" stroke-width="1.3"/></g><g data-entity="velmora"><circle cx="479.1" cy="368.2" r="4.5" fill="#2b2620"/></g><text data-entity="ashen-dominion" x="379.8" y="344.8" font-family="Georgia, 'Times New Roman', serif" font-size="14" letter-spacing="3" opacity="0.75" fill="#6f665a">ASHEN DOMINION</text><text data-entity="cindral" x="352.0" y="614.8" font-family="Georgia, 'Times New Roman', serif" font-size="11"  fill="#2b2620">Cindral</text><text data-entity="kessa" x="620.7" y="623.7" font-family="Georgia, 'Times New Roman', serif" font-size="11"  fill="#2b2620">Kessa</text><text data-entity="pale-kingdoms" x="219.1" y="726.6" font-family="Georgia, 'Times New Roman', serif" font-size="11"  fill="#2b2620">Pale Kingdoms</text><text data-entity="sea-of-glass" x="370.2" y="301.4" font-family="Georgia, 'Times New Roman', serif" font-size="12" letter-spacing="3" opacity="0.75" fill="#6b6154">SEA OF GLASS</text><text data-entity="veldt-marches" x="609.5" y="492.9" font-family="Georgia, 'Times New Roman', serif" font-size="14" letter-spacing="3" opacity="0.75" fill="#6f665a">VELDT MARCHES</text><text data-entity="velmora" x="490.6" y="372.1" font-family="Georgia, 'Times New Roman', serif" font-size="11"  fill="#2b2620">Velmora</text><text data-entity="worldteeth" x="494.6" y="482.7" font-family="Georgia, 'Times New Roman', serif" font-size="11.5"  fill="#2b2620">The Worldteeth</text><text x="167.4" y="182.9" font-family="Georgia, 'Times New Roman', serif" font-size="21" font-weight="bold" fill="#2b2620">The Salt Road</text><text x="167.4" y="200.9" font-family="Georgia, 'Times New Roman', serif" font-size="10.5" fill="#6b6154">as of chapter 8</text><g transform="translate(167.4, 795.5)"><line x1="0" y1="0" x2="26" y2="0" stroke="#d3c7ac" stroke-width="1.6"/><text x="32" y="3.5" font-family="Georgia, serif" font-size="10" fill="#6b6154">confirmed</text><line x1="104" y1="0" x2="130" y2="0" stroke="#d3c7ac" stroke-width="1.6" stroke-dasharray="6 4"/><text x="136" y="3.5" font-family="Georgia, serif" font-size="10" fill="#6b6154">hypothetical</text></g><text x="755.4" y="798.5" text-anchor="end" font-family="Georgia, serif" font-size="9.5" fill="#6f665a">rough locations: Pale Kingdoms</text></svg>